<mxfile host="app.diagrams.net" modified="2024-01-16T00:35:06.688Z" agent="Mozilla/5.0 (X11; Ubuntu; Linux x86_64; rv:121.0) Gecko/20100101 Firefox/121.0" etag="jfRmqupS-qt7f8RVrPlf" version="21.8.0" type="device">
  <diagram name="Page-1" id="nFGgReTF9sFML5LxUMQB">
    <mxGraphModel dx="2074" dy="1126" grid="1" gridSize="10" guides="1" tooltips="1" connect="1" arrows="1" fold="1" page="1" pageScale="1" pageWidth="850" pageHeight="1100" math="0" shadow="0">
      <root>
        <mxCell id="0" />
        <mxCell id="1" parent="0" />
        <mxCell id="GTTXdrcmSPd5z9FTSMzJ-4" value="Client" style="shape=umlLifeline;perimeter=lifelinePerimeter;whiteSpace=wrap;html=1;container=1;dropTarget=0;collapsible=0;recursiveResize=0;outlineConnect=0;portConstraint=eastwest;newEdgeStyle={&quot;curved&quot;:0,&quot;rounded&quot;:0};fillColor=#d5e8d4;strokeColor=#82b366;" parent="1" vertex="1">
          <mxGeometry x="100" y="200" width="100" height="1480" as="geometry" />
        </mxCell>
        <mxCell id="GTTXdrcmSPd5z9FTSMzJ-52" value="" style="html=1;points=[[0,0,0,0,5],[0,1,0,0,-5],[1,0,0,0,5],[1,1,0,0,-5]];perimeter=orthogonalPerimeter;outlineConnect=0;targetShapes=umlLifeline;portConstraint=eastwest;newEdgeStyle={&quot;curved&quot;:0,&quot;rounded&quot;:0};" parent="GTTXdrcmSPd5z9FTSMzJ-4" vertex="1">
          <mxGeometry x="45" y="1320" width="10" height="40" as="geometry" />
        </mxCell>
        <mxCell id="GTTXdrcmSPd5z9FTSMzJ-53" value="Concatenate data fragements" style="html=1;align=left;spacingLeft=2;endArrow=block;rounded=0;edgeStyle=orthogonalEdgeStyle;curved=0;rounded=0;" parent="GTTXdrcmSPd5z9FTSMzJ-4" target="GTTXdrcmSPd5z9FTSMzJ-52" edge="1">
          <mxGeometry relative="1" as="geometry">
            <mxPoint x="49.666666666666515" y="1300" as="sourcePoint" />
            <Array as="points">
              <mxPoint x="110" y="1300" />
              <mxPoint x="110" y="1340" />
            </Array>
          </mxGeometry>
        </mxCell>
        <mxCell id="GTTXdrcmSPd5z9FTSMzJ-59" value="" style="html=1;points=[[0,0,0,0,5],[0,1,0,0,-5],[1,0,0,0,5],[1,1,0,0,-5]];perimeter=orthogonalPerimeter;outlineConnect=0;targetShapes=umlLifeline;portConstraint=eastwest;newEdgeStyle={&quot;curved&quot;:0,&quot;rounded&quot;:0};" parent="GTTXdrcmSPd5z9FTSMzJ-4" vertex="1">
          <mxGeometry x="45" y="1400" width="10" height="40" as="geometry" />
        </mxCell>
        <mxCell id="GTTXdrcmSPd5z9FTSMzJ-60" value="Read using client&#39;s private key, optionally verify using server&#39;s public key." style="html=1;align=left;spacingLeft=2;endArrow=block;rounded=0;edgeStyle=orthogonalEdgeStyle;curved=0;rounded=0;" parent="GTTXdrcmSPd5z9FTSMzJ-4" target="GTTXdrcmSPd5z9FTSMzJ-59" edge="1">
          <mxGeometry relative="1" as="geometry">
            <mxPoint x="50" y="1380" as="sourcePoint" />
            <Array as="points">
              <mxPoint x="110" y="1380" />
              <mxPoint x="110" y="1420" />
            </Array>
          </mxGeometry>
        </mxCell>
        <mxCell id="GTTXdrcmSPd5z9FTSMzJ-5" value="htsget-rs" style="shape=umlLifeline;perimeter=lifelinePerimeter;whiteSpace=wrap;html=1;container=1;dropTarget=0;collapsible=0;recursiveResize=0;outlineConnect=0;portConstraint=eastwest;newEdgeStyle={&quot;curved&quot;:0,&quot;rounded&quot;:0};fillColor=#d5e8d4;strokeColor=#82b366;" parent="1" vertex="1">
          <mxGeometry x="970" y="200" width="100" height="890" as="geometry" />
        </mxCell>
        <mxCell id="GTTXdrcmSPd5z9FTSMzJ-7" value="" style="html=1;points=[[0,0,0,0,5],[0,1,0,0,-5],[1,0,0,0,5],[1,1,0,0,-5]];perimeter=orthogonalPerimeter;outlineConnect=0;targetShapes=umlLifeline;portConstraint=eastwest;newEdgeStyle={&quot;curved&quot;:0,&quot;rounded&quot;:0};" parent="GTTXdrcmSPd5z9FTSMzJ-5" vertex="1">
          <mxGeometry x="45" y="70" width="10" height="800" as="geometry" />
        </mxCell>
        <mxCell id="GTTXdrcmSPd5z9FTSMzJ-6" value="UrlStorage backend" style="shape=umlLifeline;perimeter=lifelinePerimeter;whiteSpace=wrap;html=1;container=1;dropTarget=0;collapsible=0;recursiveResize=0;outlineConnect=0;portConstraint=eastwest;newEdgeStyle={&quot;curved&quot;:0,&quot;rounded&quot;:0};fillColor=#d5e8d4;strokeColor=#82b366;" parent="1" vertex="1">
          <mxGeometry x="1890" y="200" width="100" height="1250" as="geometry" />
        </mxCell>
        <mxCell id="GTTXdrcmSPd5z9FTSMzJ-36" value="" style="html=1;points=[[0,0,0,0,5],[0,1,0,0,-5],[1,0,0,0,5],[1,1,0,0,-5]];perimeter=orthogonalPerimeter;outlineConnect=0;targetShapes=umlLifeline;portConstraint=eastwest;newEdgeStyle={&quot;curved&quot;:0,&quot;rounded&quot;:0};" parent="GTTXdrcmSPd5z9FTSMzJ-6" vertex="1">
          <mxGeometry x="45" y="1130" width="10" height="80" as="geometry" />
        </mxCell>
        <mxCell id="GTTXdrcmSPd5z9FTSMzJ-62" value="" style="html=1;points=[[0,0,0,0,5],[0,1,0,0,-5],[1,0,0,0,5],[1,1,0,0,-5]];perimeter=orthogonalPerimeter;outlineConnect=0;targetShapes=umlLifeline;portConstraint=eastwest;newEdgeStyle={&quot;curved&quot;:0,&quot;rounded&quot;:0};" parent="GTTXdrcmSPd5z9FTSMzJ-6" vertex="1">
          <mxGeometry x="45" y="230" width="10" height="80" as="geometry" />
        </mxCell>
        <mxCell id="GTTXdrcmSPd5z9FTSMzJ-76" value="" style="html=1;points=[[0,0,0,0,5],[0,1,0,0,-5],[1,0,0,0,5],[1,1,0,0,-5]];perimeter=orthogonalPerimeter;outlineConnect=0;targetShapes=umlLifeline;portConstraint=eastwest;newEdgeStyle={&quot;curved&quot;:0,&quot;rounded&quot;:0};" parent="GTTXdrcmSPd5z9FTSMzJ-6" vertex="1">
          <mxGeometry x="44" y="760" width="10" height="80" as="geometry" />
        </mxCell>
        <mxCell id="GTTXdrcmSPd5z9FTSMzJ-92" value="" style="html=1;points=[[0,0,0,0,5],[0,1,0,0,-5],[1,0,0,0,5],[1,1,0,0,-5]];perimeter=orthogonalPerimeter;outlineConnect=0;targetShapes=umlLifeline;portConstraint=eastwest;newEdgeStyle={&quot;curved&quot;:0,&quot;rounded&quot;:0};" parent="GTTXdrcmSPd5z9FTSMzJ-6" vertex="1">
          <mxGeometry x="44" y="480" width="10" height="80" as="geometry" />
        </mxCell>
        <mxCell id="GTTXdrcmSPd5z9FTSMzJ-8" value="" style="html=1;verticalAlign=bottom;endArrow=block;curved=0;rounded=0;" parent="1" source="GTTXdrcmSPd5z9FTSMzJ-4" target="GTTXdrcmSPd5z9FTSMzJ-7" edge="1">
          <mxGeometry x="-0.0283" y="5" relative="1" as="geometry">
            <mxPoint x="157.25" y="420.0000000000007" as="sourcePoint" />
            <mxPoint x="1010" y="420" as="targetPoint" />
            <Array as="points">
              <mxPoint x="580" y="420" />
            </Array>
            <mxPoint as="offset" />
          </mxGeometry>
        </mxCell>
        <mxCell id="GTTXdrcmSPd5z9FTSMzJ-18" value="&lt;b&gt;Headers&lt;/b&gt;" style="swimlane;fontStyle=0;childLayout=stackLayout;horizontal=1;startSize=26;fillColor=none;horizontalStack=0;resizeParent=1;resizeParentMax=0;resizeLast=0;collapsible=1;marginBottom=0;whiteSpace=wrap;html=1;" parent="1" vertex="1">
          <mxGeometry x="450" y="330" width="300" height="78" as="geometry" />
        </mxCell>
        <mxCell id="GTTXdrcmSPd5z9FTSMzJ-19" value="authorization: &lt;i&gt;&amp;lt;token&amp;gt;&lt;/i&gt;" style="text;strokeColor=none;fillColor=none;align=left;verticalAlign=top;spacingLeft=4;spacingRight=4;overflow=hidden;rotatable=0;points=[[0,0.5],[1,0.5]];portConstraint=eastwest;whiteSpace=wrap;html=1;" parent="GTTXdrcmSPd5z9FTSMzJ-18" vertex="1">
          <mxGeometry y="26" width="300" height="26" as="geometry" />
        </mxCell>
        <mxCell id="GTTXdrcmSPd5z9FTSMzJ-20" value="client-public-key: &lt;i&gt;&amp;lt;base64-encoded-client-public-key&lt;/i&gt;&amp;gt;" style="text;strokeColor=#6c8ebf;fillColor=#dae8fc;align=left;verticalAlign=top;spacingLeft=4;spacingRight=4;overflow=hidden;rotatable=0;points=[[0,0.5],[1,0.5]];portConstraint=eastwest;whiteSpace=wrap;html=1;" parent="GTTXdrcmSPd5z9FTSMzJ-18" vertex="1">
          <mxGeometry y="52" width="300" height="26" as="geometry" />
        </mxCell>
        <mxCell id="GTTXdrcmSPd5z9FTSMzJ-22" value="&lt;b&gt;Request&lt;/b&gt;" style="swimlane;fontStyle=0;childLayout=stackLayout;horizontal=1;startSize=26;fillColor=none;horizontalStack=0;resizeParent=1;resizeParentMax=0;resizeLast=0;collapsible=1;marginBottom=0;whiteSpace=wrap;html=1;" parent="1" vertex="1">
          <mxGeometry x="450" y="280" width="300" height="50" as="geometry" />
        </mxCell>
        <mxCell id="GTTXdrcmSPd5z9FTSMzJ-23" value="https://&lt;i&gt;&amp;lt;htsget-url&amp;gt;&lt;/i&gt;/reads/id?referenceName=chr1 " style="text;strokeColor=none;fillColor=none;align=left;verticalAlign=top;spacingLeft=4;spacingRight=4;overflow=hidden;rotatable=0;points=[[0,0.5],[1,0.5]];portConstraint=eastwest;whiteSpace=wrap;html=1;" parent="GTTXdrcmSPd5z9FTSMzJ-22" vertex="1">
          <mxGeometry y="26" width="300" height="24" as="geometry" />
        </mxCell>
        <mxCell id="GTTXdrcmSPd5z9FTSMzJ-32" value="&lt;b&gt;Response&lt;/b&gt;" style="swimlane;fontStyle=0;childLayout=stackLayout;horizontal=1;startSize=26;fillColor=none;horizontalStack=0;resizeParent=1;resizeParentMax=0;resizeLast=0;collapsible=1;marginBottom=0;whiteSpace=wrap;html=1;" parent="1" vertex="1">
          <mxGeometry x="310" y="545" width="580" height="500" as="geometry" />
        </mxCell>
        <mxCell id="GTTXdrcmSPd5z9FTSMzJ-33" value="{&lt;br&gt;&amp;nbsp;&amp;nbsp; &quot;htsget&quot; : {&lt;br&gt;&amp;nbsp;&amp;nbsp;&amp;nbsp;&amp;nbsp;&amp;nbsp; &quot;format&quot; : &quot;BAM&quot;,&lt;br&gt;&lt;div&gt;&amp;nbsp;&amp;nbsp;&amp;nbsp;&amp;nbsp;&amp;nbsp; &quot;urls&quot; : [&lt;/div&gt;&lt;div&gt;&amp;nbsp;&amp;nbsp;&amp;nbsp;&amp;nbsp;&amp;nbsp;&amp;nbsp;&amp;nbsp;&amp;nbsp; {&lt;br&gt;&amp;nbsp;&amp;nbsp;&amp;nbsp;&amp;nbsp;&amp;nbsp;&amp;nbsp;&amp;nbsp;&amp;nbsp;&amp;nbsp;&amp;nbsp;&amp;nbsp; &quot;url&quot; : &quot;https://&amp;lt;url-storage-backend&amp;gt;/id.bam.c4gh&quot;,&lt;/div&gt;&lt;div&gt;&amp;nbsp;&amp;nbsp;&amp;nbsp;&amp;nbsp;&amp;nbsp;&amp;nbsp;&amp;nbsp;&amp;nbsp;&amp;nbsp;&amp;nbsp;&amp;nbsp; &quot;headers&quot; : {&lt;br&gt;&amp;nbsp;&amp;nbsp;&amp;nbsp;&amp;nbsp;&amp;nbsp;&amp;nbsp;&amp;nbsp;&amp;nbsp;&amp;nbsp;&amp;nbsp;&amp;nbsp;&amp;nbsp;&amp;nbsp;&amp;nbsp; &quot;authorization&quot; : &quot;&lt;i&gt;&amp;lt;token&amp;gt;&lt;/i&gt;&quot;,&lt;br&gt;&amp;nbsp;&amp;nbsp;&amp;nbsp;&amp;nbsp;&amp;nbsp;&amp;nbsp;&amp;nbsp;&amp;nbsp;&amp;nbsp;&amp;nbsp;&amp;nbsp;&amp;nbsp;&amp;nbsp;&amp;nbsp; &quot;range&quot; : &quot;bytes=0-&lt;font style=&quot;font-size: 11px;&quot;&gt;&lt;i&gt;&amp;lt;&lt;font color=&quot;#c01c28&quot;&gt;crypt4gh-header-size&lt;/font&gt; - 1&amp;gt;&lt;/i&gt;&lt;/font&gt;&quot;,&lt;/div&gt;&lt;div&gt;&lt;font color=&quot;#6c8ebf&quot;&gt;&amp;nbsp;&amp;nbsp;&amp;nbsp;&amp;nbsp;&amp;nbsp;&amp;nbsp;&amp;nbsp;&amp;nbsp;&amp;nbsp;&amp;nbsp;&amp;nbsp;&amp;nbsp;&amp;nbsp;&amp;nbsp; &quot;client-public-key&quot;: &quot;&lt;i&gt;&amp;lt;base64-encoded-client-public-key&amp;gt;&lt;/i&gt;&quot;,&lt;/font&gt;&lt;/div&gt;&lt;div&gt;&lt;font color=&quot;#d79b00&quot;&gt;&amp;nbsp;&amp;nbsp;&amp;nbsp;&amp;nbsp;&amp;nbsp;&amp;nbsp;&amp;nbsp;&amp;nbsp;&amp;nbsp;&amp;nbsp;&amp;nbsp;&amp;nbsp;&amp;nbsp;&amp;nbsp; &quot;server-public-key&quot;: &quot;&lt;i&gt;&amp;lt;base64-encoded-server-public-key&lt;/i&gt;&quot;&lt;/font&gt;&lt;br&gt;&lt;/div&gt;&lt;div&gt;&amp;nbsp;&amp;nbsp;&amp;nbsp;&amp;nbsp;&amp;nbsp;&amp;nbsp;&amp;nbsp;&amp;nbsp;&amp;nbsp;&amp;nbsp;&amp;nbsp;&amp;nbsp; },&lt;/div&gt;&lt;div&gt;&lt;span style=&quot;&quot;&gt;&lt;span style=&quot;&quot;&gt;&amp;nbsp;&amp;nbsp;&amp;nbsp;&amp;nbsp;&lt;/span&gt;&lt;/span&gt;&amp;nbsp;&amp;nbsp;&amp;nbsp;&amp;nbsp;&amp;nbsp;&amp;nbsp;&amp;nbsp; &quot;class&quot; : &quot;header&quot;&lt;br&gt;&amp;nbsp;&amp;nbsp;&amp;nbsp;&amp;nbsp;&amp;nbsp;&amp;nbsp;&amp;nbsp;&amp;nbsp; },&lt;/div&gt;&amp;nbsp;&amp;nbsp;&amp;nbsp;&amp;nbsp;&amp;nbsp;&amp;nbsp;&amp;nbsp;&amp;nbsp; {&lt;br&gt;&amp;nbsp;&amp;nbsp;&amp;nbsp;&amp;nbsp;&amp;nbsp;&amp;nbsp;&amp;nbsp;&amp;nbsp;&amp;nbsp;&amp;nbsp;&amp;nbsp; &quot;url&quot; : &quot;data:;base64,&lt;i&gt;&amp;lt;base64-encoded-edit-list&amp;gt;&lt;/i&gt;&quot;,&lt;br&gt;&amp;nbsp;&amp;nbsp;&amp;nbsp;&amp;nbsp;&amp;nbsp;&amp;nbsp;&amp;nbsp;&amp;nbsp;&amp;nbsp;&amp;nbsp;&amp;nbsp; &quot;class&quot; : &quot;header&quot;&lt;br&gt;&amp;nbsp;&amp;nbsp;&amp;nbsp;&amp;nbsp;&amp;nbsp;&amp;nbsp;&amp;nbsp;&amp;nbsp; },&lt;br&gt;&lt;div&gt;&amp;nbsp;&amp;nbsp;&amp;nbsp;&amp;nbsp;&amp;nbsp;&amp;nbsp;&amp;nbsp;&amp;nbsp; {&lt;br&gt;&amp;nbsp;&amp;nbsp;&amp;nbsp;&amp;nbsp;&amp;nbsp;&amp;nbsp;&amp;nbsp;&amp;nbsp;&amp;nbsp;&amp;nbsp;&amp;nbsp; &quot;url&quot; : &quot;https://&amp;lt;url-storage-backend&amp;gt;/id.bam.c4gh&quot;,&lt;/div&gt;&lt;div&gt;&amp;nbsp;&amp;nbsp;&amp;nbsp;&amp;nbsp;&amp;nbsp;&amp;nbsp;&amp;nbsp;&amp;nbsp;&amp;nbsp;&amp;nbsp;&amp;nbsp; &quot;headers&quot; : {&lt;br&gt;&amp;nbsp;&amp;nbsp;&amp;nbsp;&amp;nbsp;&amp;nbsp;&amp;nbsp;&amp;nbsp;&amp;nbsp;&amp;nbsp;&amp;nbsp;&amp;nbsp;&amp;nbsp;&amp;nbsp;&amp;nbsp; &quot;authorization&quot; : &quot;&lt;i&gt;&amp;lt;token&amp;gt;&lt;/i&gt;&quot;,&lt;br&gt;&amp;nbsp;&amp;nbsp;&amp;nbsp;&amp;nbsp;&amp;nbsp;&amp;nbsp;&amp;nbsp;&amp;nbsp;&amp;nbsp;&amp;nbsp;&amp;nbsp;&amp;nbsp;&amp;nbsp;&amp;nbsp; &quot;range&quot; : &quot;bytes=124-2596798&quot;,&lt;/div&gt;&lt;div&gt;&lt;font color=&quot;#6c8ebf&quot;&gt;&amp;nbsp;&amp;nbsp;&amp;nbsp;&amp;nbsp;&amp;nbsp;&amp;nbsp;&amp;nbsp;&amp;nbsp;&amp;nbsp;&amp;nbsp;&amp;nbsp;&amp;nbsp;&amp;nbsp;&amp;nbsp; &quot;client-public-key&quot;: &quot;&lt;i&gt;&amp;lt;base64-encoded-client-public-key&amp;gt;&lt;/i&gt;&quot;,&lt;/font&gt;&lt;/div&gt;&lt;div&gt;&lt;font color=&quot;#d79b00&quot;&gt;&amp;nbsp;&amp;nbsp;&amp;nbsp;&amp;nbsp;&amp;nbsp;&amp;nbsp;&amp;nbsp;&amp;nbsp;&amp;nbsp;&amp;nbsp;&amp;nbsp;&amp;nbsp;&amp;nbsp;&amp;nbsp; &quot;server-public-key&quot;: &quot;&lt;i&gt;&amp;lt;base64-encoded-server-public-key&lt;/i&gt;&quot;&lt;/font&gt;&lt;br&gt;&lt;/div&gt;&lt;div&gt;&amp;nbsp;&amp;nbsp;&amp;nbsp;&amp;nbsp;&amp;nbsp;&amp;nbsp;&amp;nbsp;&amp;nbsp;&amp;nbsp;&amp;nbsp;&amp;nbsp;&amp;nbsp; },&lt;/div&gt;&lt;div&gt;&lt;span style=&quot;&quot;&gt;&amp;nbsp;&amp;nbsp;&amp;nbsp;&amp;nbsp;&lt;/span&gt;&amp;nbsp;&amp;nbsp;&amp;nbsp;&amp;nbsp;&amp;nbsp;&amp;nbsp;&amp;nbsp; &quot;class&quot; : &quot;body&quot;&lt;br&gt;&amp;nbsp;&amp;nbsp;&amp;nbsp;&amp;nbsp;&amp;nbsp;&amp;nbsp;&amp;nbsp;&amp;nbsp; }&lt;/div&gt;&amp;nbsp;&amp;nbsp;&amp;nbsp;&amp;nbsp;&amp;nbsp; ]&lt;br&gt;&amp;nbsp;&amp;nbsp; }&lt;br&gt;}" style="text;strokeColor=none;fillColor=none;align=left;verticalAlign=top;spacingLeft=4;spacingRight=4;overflow=hidden;rotatable=0;points=[[0,0.5],[1,0.5]];portConstraint=eastwest;whiteSpace=wrap;html=1;" parent="GTTXdrcmSPd5z9FTSMzJ-32" vertex="1">
          <mxGeometry y="26" width="580" height="474" as="geometry" />
        </mxCell>
        <mxCell id="GTTXdrcmSPd5z9FTSMzJ-9" value="" style="html=1;verticalAlign=bottom;endArrow=open;dashed=1;endSize=8;curved=0;rounded=0;exitX=0;exitY=1;exitDx=0;exitDy=-5;" parent="1" edge="1">
          <mxGeometry relative="1" as="geometry">
            <mxPoint x="149.5" y="1054.4099999999987" as="targetPoint" />
            <mxPoint x="1015" y="1054.4099999999987" as="sourcePoint" />
          </mxGeometry>
        </mxCell>
        <mxCell id="GTTXdrcmSPd5z9FTSMzJ-37" value="" style="html=1;verticalAlign=bottom;endArrow=block;curved=0;rounded=0;entryX=0;entryY=0;entryDx=0;entryDy=5;" parent="1" source="GTTXdrcmSPd5z9FTSMzJ-4" target="GTTXdrcmSPd5z9FTSMzJ-36" edge="1">
          <mxGeometry relative="1" as="geometry">
            <mxPoint x="1610" y="1095" as="sourcePoint" />
          </mxGeometry>
        </mxCell>
        <mxCell id="GTTXdrcmSPd5z9FTSMzJ-39" value="&lt;b&gt;Headers&lt;/b&gt;" style="swimlane;fontStyle=0;childLayout=stackLayout;horizontal=1;startSize=26;fillColor=none;horizontalStack=0;resizeParent=1;resizeParentMax=0;resizeLast=0;collapsible=1;marginBottom=0;whiteSpace=wrap;html=1;" parent="1" vertex="1">
          <mxGeometry x="860" y="1200" width="320" height="130" as="geometry" />
        </mxCell>
        <mxCell id="GTTXdrcmSPd5z9FTSMzJ-40" value="authorization: &lt;i&gt;&amp;lt;token&amp;gt;&lt;/i&gt;" style="text;strokeColor=none;fillColor=none;align=left;verticalAlign=top;spacingLeft=4;spacingRight=4;overflow=hidden;rotatable=0;points=[[0,0.5],[1,0.5]];portConstraint=eastwest;whiteSpace=wrap;html=1;" parent="GTTXdrcmSPd5z9FTSMzJ-39" vertex="1">
          <mxGeometry y="26" width="320" height="26" as="geometry" />
        </mxCell>
        <mxCell id="GTTXdrcmSPd5z9FTSMzJ-41" value="range: &lt;i&gt;&amp;lt;byte-range&lt;/i&gt;&amp;gt;" style="text;strokeColor=none;fillColor=none;align=left;verticalAlign=top;spacingLeft=4;spacingRight=4;overflow=hidden;rotatable=0;points=[[0,0.5],[1,0.5]];portConstraint=eastwest;whiteSpace=wrap;html=1;" parent="GTTXdrcmSPd5z9FTSMzJ-39" vertex="1">
          <mxGeometry y="52" width="320" height="28" as="geometry" />
        </mxCell>
        <mxCell id="GTTXdrcmSPd5z9FTSMzJ-44" value="client-public-key: &lt;i&gt;&amp;lt;base64-encoded-client-public-key&lt;/i&gt;&amp;gt;" style="text;strokeColor=#6c8ebf;fillColor=#dae8fc;align=left;verticalAlign=top;spacingLeft=4;spacingRight=4;overflow=hidden;rotatable=0;points=[[0,0.5],[1,0.5]];portConstraint=eastwest;whiteSpace=wrap;html=1;" parent="GTTXdrcmSPd5z9FTSMzJ-39" vertex="1">
          <mxGeometry y="80" width="320" height="26" as="geometry" />
        </mxCell>
        <mxCell id="GTTXdrcmSPd5z9FTSMzJ-45" value="server-public-key: &lt;i&gt;&amp;lt;base64-encoded-server-public-key&lt;/i&gt;&amp;gt;" style="text;strokeColor=#d79b00;fillColor=#ffe6cc;align=left;verticalAlign=top;spacingLeft=4;spacingRight=4;overflow=hidden;rotatable=0;points=[[0,0.5],[1,0.5]];portConstraint=eastwest;whiteSpace=wrap;html=1;" parent="GTTXdrcmSPd5z9FTSMzJ-39" vertex="1">
          <mxGeometry y="106" width="320" height="24" as="geometry" />
        </mxCell>
        <mxCell id="GTTXdrcmSPd5z9FTSMzJ-42" value="&lt;b&gt;Request&lt;/b&gt;" style="swimlane;fontStyle=0;childLayout=stackLayout;horizontal=1;startSize=26;fillColor=none;horizontalStack=0;resizeParent=1;resizeParentMax=0;resizeLast=0;collapsible=1;marginBottom=0;whiteSpace=wrap;html=1;" parent="1" vertex="1">
          <mxGeometry x="860" y="1150" width="320" height="50" as="geometry" />
        </mxCell>
        <mxCell id="GTTXdrcmSPd5z9FTSMzJ-43" value="https://&amp;lt;url-storage-backend&amp;gt;/id.bam.c4gh" style="text;strokeColor=none;fillColor=none;align=left;verticalAlign=top;spacingLeft=4;spacingRight=4;overflow=hidden;rotatable=0;points=[[0,0.5],[1,0.5]];portConstraint=eastwest;whiteSpace=wrap;html=1;" parent="GTTXdrcmSPd5z9FTSMzJ-42" vertex="1">
          <mxGeometry y="26" width="320" height="24" as="geometry" />
        </mxCell>
        <mxCell id="GTTXdrcmSPd5z9FTSMzJ-38" value="Data fragment" style="html=1;verticalAlign=bottom;endArrow=open;dashed=1;endSize=8;curved=0;rounded=0;exitX=0;exitY=1;exitDx=0;exitDy=-5;" parent="1" source="GTTXdrcmSPd5z9FTSMzJ-36" target="GTTXdrcmSPd5z9FTSMzJ-4" edge="1">
          <mxGeometry x="0.0248" y="-5" relative="1" as="geometry">
            <mxPoint x="1610" y="1165" as="targetPoint" />
            <mxPoint as="offset" />
          </mxGeometry>
        </mxCell>
        <mxCell id="GTTXdrcmSPd5z9FTSMzJ-51" value="Repeat for number of URL tickets" style="shape=umlFrame;whiteSpace=wrap;html=1;pointerEvents=0;width=220;height=50;" parent="1" vertex="1">
          <mxGeometry x="130" y="1110" width="1830" height="320" as="geometry" />
        </mxCell>
        <mxCell id="GTTXdrcmSPd5z9FTSMzJ-63" value="" style="html=1;verticalAlign=bottom;endArrow=block;curved=0;rounded=0;entryX=0;entryY=0;entryDx=0;entryDy=5;" parent="1" source="GTTXdrcmSPd5z9FTSMzJ-7" target="GTTXdrcmSPd5z9FTSMzJ-62" edge="1">
          <mxGeometry relative="1" as="geometry">
            <mxPoint x="1615" y="435" as="sourcePoint" />
          </mxGeometry>
        </mxCell>
        <mxCell id="GTTXdrcmSPd5z9FTSMzJ-64" value="&lt;div&gt;Index file: &quot;id.bam.bai&quot;&lt;/div&gt;" style="html=1;verticalAlign=bottom;endArrow=open;dashed=1;endSize=8;curved=0;rounded=0;exitX=0;exitY=1;exitDx=0;exitDy=-5;" parent="1" source="GTTXdrcmSPd5z9FTSMzJ-62" target="GTTXdrcmSPd5z9FTSMzJ-7" edge="1">
          <mxGeometry relative="1" as="geometry">
            <mxPoint x="1050" y="500" as="targetPoint" />
          </mxGeometry>
        </mxCell>
        <mxCell id="GTTXdrcmSPd5z9FTSMzJ-65" value="&lt;b&gt;Headers&lt;/b&gt;" style="swimlane;fontStyle=0;childLayout=stackLayout;horizontal=1;startSize=26;fillColor=none;horizontalStack=0;resizeParent=1;resizeParentMax=0;resizeLast=0;collapsible=1;marginBottom=0;whiteSpace=wrap;html=1;" parent="1" vertex="1">
          <mxGeometry x="1328" y="330" width="312" height="104" as="geometry" />
        </mxCell>
        <mxCell id="GTTXdrcmSPd5z9FTSMzJ-66" value="authorization: &lt;i&gt;&amp;lt;token&amp;gt;&lt;/i&gt;" style="text;strokeColor=none;fillColor=none;align=left;verticalAlign=top;spacingLeft=4;spacingRight=4;overflow=hidden;rotatable=0;points=[[0,0.5],[1,0.5]];portConstraint=eastwest;whiteSpace=wrap;html=1;" parent="GTTXdrcmSPd5z9FTSMzJ-65" vertex="1">
          <mxGeometry y="26" width="312" height="26" as="geometry" />
        </mxCell>
        <mxCell id="GTTXdrcmSPd5z9FTSMzJ-67" value="client-public-key: &lt;i&gt;&amp;lt;base64-encoded-client-public-key&lt;/i&gt;&amp;gt;" style="text;strokeColor=#6c8ebf;fillColor=#dae8fc;align=left;verticalAlign=top;spacingLeft=4;spacingRight=4;overflow=hidden;rotatable=0;points=[[0,0.5],[1,0.5]];portConstraint=eastwest;whiteSpace=wrap;html=1;" parent="GTTXdrcmSPd5z9FTSMzJ-65" vertex="1">
          <mxGeometry y="52" width="312" height="26" as="geometry" />
        </mxCell>
        <mxCell id="GTTXdrcmSPd5z9FTSMzJ-103" value="server-public-key: &lt;i&gt;&amp;lt;base64-encoded-server-public-key&lt;/i&gt;&amp;gt;" style="text;strokeColor=#d79b00;fillColor=#ffe6cc;align=left;verticalAlign=top;spacingLeft=4;spacingRight=4;overflow=hidden;rotatable=0;points=[[0,0.5],[1,0.5]];portConstraint=eastwest;whiteSpace=wrap;html=1;" parent="GTTXdrcmSPd5z9FTSMzJ-65" vertex="1">
          <mxGeometry y="78" width="312" height="26" as="geometry" />
        </mxCell>
        <mxCell id="GTTXdrcmSPd5z9FTSMzJ-68" value="&lt;b&gt;GET Request&lt;/b&gt;" style="swimlane;fontStyle=0;childLayout=stackLayout;horizontal=1;startSize=26;fillColor=none;horizontalStack=0;resizeParent=1;resizeParentMax=0;resizeLast=0;collapsible=1;marginBottom=0;whiteSpace=wrap;html=1;" parent="1" vertex="1">
          <mxGeometry x="1328" y="280" width="312" height="50" as="geometry" />
        </mxCell>
        <mxCell id="GTTXdrcmSPd5z9FTSMzJ-69" value="https://&lt;i&gt;&amp;lt;endpoind-index&amp;gt;&lt;/i&gt;/id.bam.bai" style="text;strokeColor=none;fillColor=none;align=left;verticalAlign=top;spacingLeft=4;spacingRight=4;overflow=hidden;rotatable=0;points=[[0,0.5],[1,0.5]];portConstraint=eastwest;whiteSpace=wrap;html=1;" parent="GTTXdrcmSPd5z9FTSMzJ-68" vertex="1">
          <mxGeometry y="26" width="312" height="24" as="geometry" />
        </mxCell>
        <mxCell id="GTTXdrcmSPd5z9FTSMzJ-77" value="" style="html=1;verticalAlign=bottom;endArrow=block;curved=0;rounded=0;entryX=0;entryY=0;entryDx=0;entryDy=5;" parent="1" target="GTTXdrcmSPd5z9FTSMzJ-76" edge="1">
          <mxGeometry relative="1" as="geometry">
            <mxPoint x="1024" y="965" as="sourcePoint" />
          </mxGeometry>
        </mxCell>
        <mxCell id="GTTXdrcmSPd5z9FTSMzJ-78" value="The start of the encrypted file: &quot;id.bam.c4gh&quot; encrypted with the client and server public keys" style="html=1;verticalAlign=bottom;endArrow=open;dashed=1;endSize=8;curved=0;rounded=0;exitX=0;exitY=1;exitDx=0;exitDy=-5;" parent="1" source="GTTXdrcmSPd5z9FTSMzJ-76" edge="1">
          <mxGeometry relative="1" as="geometry">
            <mxPoint x="1024" y="1035" as="targetPoint" />
            <mxPoint as="offset" />
          </mxGeometry>
        </mxCell>
        <mxCell id="GTTXdrcmSPd5z9FTSMzJ-79" value="&lt;b&gt;Headers&lt;/b&gt;" style="swimlane;fontStyle=0;childLayout=stackLayout;horizontal=1;startSize=26;fillColor=none;horizontalStack=0;resizeParent=1;resizeParentMax=0;resizeLast=0;collapsible=1;marginBottom=0;whiteSpace=wrap;html=1;" parent="1" vertex="1">
          <mxGeometry x="1330" y="830" width="310" height="130" as="geometry" />
        </mxCell>
        <mxCell id="GTTXdrcmSPd5z9FTSMzJ-80" value="authorization: &lt;i&gt;&amp;lt;token&amp;gt;&lt;/i&gt;" style="text;strokeColor=none;fillColor=none;align=left;verticalAlign=top;spacingLeft=4;spacingRight=4;overflow=hidden;rotatable=0;points=[[0,0.5],[1,0.5]];portConstraint=eastwest;whiteSpace=wrap;html=1;" parent="GTTXdrcmSPd5z9FTSMzJ-79" vertex="1">
          <mxGeometry y="26" width="310" height="26" as="geometry" />
        </mxCell>
        <mxCell id="GTTXdrcmSPd5z9FTSMzJ-110" value="range: &quot;bytes=0-&lt;i&gt;&amp;lt;encrypted-bam-header-end&amp;gt;&lt;b&gt;&quot;&lt;/b&gt;&lt;/i&gt; " style="text;strokeColor=none;fillColor=none;align=left;verticalAlign=top;spacingLeft=4;spacingRight=4;overflow=hidden;rotatable=0;points=[[0,0.5],[1,0.5]];portConstraint=eastwest;whiteSpace=wrap;html=1;" parent="GTTXdrcmSPd5z9FTSMzJ-79" vertex="1">
          <mxGeometry y="52" width="310" height="26" as="geometry" />
        </mxCell>
        <mxCell id="GTTXdrcmSPd5z9FTSMzJ-81" value="client-public-key: &lt;i&gt;&amp;lt;base64-encoded-client-public-key&lt;/i&gt;&amp;gt;" style="text;strokeColor=#6c8ebf;fillColor=#dae8fc;align=left;verticalAlign=top;spacingLeft=4;spacingRight=4;overflow=hidden;rotatable=0;points=[[0,0.5],[1,0.5]];portConstraint=eastwest;whiteSpace=wrap;html=1;" parent="GTTXdrcmSPd5z9FTSMzJ-79" vertex="1">
          <mxGeometry y="78" width="310" height="26" as="geometry" />
        </mxCell>
        <mxCell id="GTTXdrcmSPd5z9FTSMzJ-108" value="server-public-key: &lt;i&gt;&amp;lt;base64-encoded-server-public-key&lt;/i&gt;&amp;gt;" style="text;strokeColor=#d79b00;fillColor=#ffe6cc;align=left;verticalAlign=top;spacingLeft=4;spacingRight=4;overflow=hidden;rotatable=0;points=[[0,0.5],[1,0.5]];portConstraint=eastwest;whiteSpace=wrap;html=1;" parent="GTTXdrcmSPd5z9FTSMzJ-79" vertex="1">
          <mxGeometry y="104" width="310" height="26" as="geometry" />
        </mxCell>
        <mxCell id="GTTXdrcmSPd5z9FTSMzJ-82" value="&lt;b&gt;GET Request&lt;/b&gt;" style="swimlane;fontStyle=0;childLayout=stackLayout;horizontal=1;startSize=26;fillColor=none;horizontalStack=0;resizeParent=1;resizeParentMax=0;resizeLast=0;collapsible=1;marginBottom=0;whiteSpace=wrap;html=1;" parent="1" vertex="1">
          <mxGeometry x="1330" y="780" width="310" height="50" as="geometry" />
        </mxCell>
        <mxCell id="GTTXdrcmSPd5z9FTSMzJ-83" value="https://&lt;i&gt;&amp;lt;endpoind-file&amp;gt;&lt;/i&gt;/id.bam.c4gh" style="text;strokeColor=none;fillColor=none;align=left;verticalAlign=top;spacingLeft=4;spacingRight=4;overflow=hidden;rotatable=0;points=[[0,0.5],[1,0.5]];portConstraint=eastwest;whiteSpace=wrap;html=1;" parent="GTTXdrcmSPd5z9FTSMzJ-82" vertex="1">
          <mxGeometry y="26" width="310" height="24" as="geometry" />
        </mxCell>
        <mxCell id="GTTXdrcmSPd5z9FTSMzJ-93" value="" style="html=1;verticalAlign=bottom;endArrow=block;curved=0;rounded=0;entryX=0;entryY=0;entryDx=0;entryDy=5;" parent="1" target="GTTXdrcmSPd5z9FTSMzJ-92" edge="1">
          <mxGeometry relative="1" as="geometry">
            <mxPoint x="1024" y="685" as="sourcePoint" />
          </mxGeometry>
        </mxCell>
        <mxCell id="GTTXdrcmSPd5z9FTSMzJ-94" value="Size of the encrypted file: &quot;id.bam.c4gh&quot;" style="html=1;verticalAlign=bottom;endArrow=open;dashed=1;endSize=8;curved=0;rounded=0;exitX=0;exitY=1;exitDx=0;exitDy=-5;" parent="1" source="GTTXdrcmSPd5z9FTSMzJ-92" edge="1">
          <mxGeometry relative="1" as="geometry">
            <mxPoint x="1024" y="755" as="targetPoint" />
          </mxGeometry>
        </mxCell>
        <mxCell id="GTTXdrcmSPd5z9FTSMzJ-95" value="&lt;b&gt;Headers&lt;/b&gt;" style="swimlane;fontStyle=0;childLayout=stackLayout;horizontal=1;startSize=26;fillColor=none;horizontalStack=0;resizeParent=1;resizeParentMax=0;resizeLast=0;collapsible=1;marginBottom=0;whiteSpace=wrap;html=1;" parent="1" vertex="1">
          <mxGeometry x="1327" y="580" width="312" height="104" as="geometry" />
        </mxCell>
        <mxCell id="GTTXdrcmSPd5z9FTSMzJ-96" value="authorization: &lt;i&gt;&amp;lt;token&amp;gt;&lt;/i&gt;" style="text;strokeColor=none;fillColor=none;align=left;verticalAlign=top;spacingLeft=4;spacingRight=4;overflow=hidden;rotatable=0;points=[[0,0.5],[1,0.5]];portConstraint=eastwest;whiteSpace=wrap;html=1;" parent="GTTXdrcmSPd5z9FTSMzJ-95" vertex="1">
          <mxGeometry y="26" width="312" height="26" as="geometry" />
        </mxCell>
        <mxCell id="GTTXdrcmSPd5z9FTSMzJ-97" value="client-public-key: &lt;i&gt;&amp;lt;base64-encoded-client-public-key&lt;/i&gt;&amp;gt;" style="text;strokeColor=#6c8ebf;fillColor=#dae8fc;align=left;verticalAlign=top;spacingLeft=4;spacingRight=4;overflow=hidden;rotatable=0;points=[[0,0.5],[1,0.5]];portConstraint=eastwest;whiteSpace=wrap;html=1;" parent="GTTXdrcmSPd5z9FTSMzJ-95" vertex="1">
          <mxGeometry y="52" width="312" height="26" as="geometry" />
        </mxCell>
        <mxCell id="GTTXdrcmSPd5z9FTSMzJ-107" value="server-public-key: &lt;i&gt;&amp;lt;base64-encoded-server-public-key&lt;/i&gt;&amp;gt;" style="text;strokeColor=#d79b00;fillColor=#ffe6cc;align=left;verticalAlign=top;spacingLeft=4;spacingRight=4;overflow=hidden;rotatable=0;points=[[0,0.5],[1,0.5]];portConstraint=eastwest;whiteSpace=wrap;html=1;" parent="GTTXdrcmSPd5z9FTSMzJ-95" vertex="1">
          <mxGeometry y="78" width="312" height="26" as="geometry" />
        </mxCell>
        <mxCell id="GTTXdrcmSPd5z9FTSMzJ-98" value="&lt;b&gt;HEAD Request&lt;/b&gt;" style="swimlane;fontStyle=0;childLayout=stackLayout;horizontal=1;startSize=26;fillColor=none;horizontalStack=0;resizeParent=1;resizeParentMax=0;resizeLast=0;collapsible=1;marginBottom=0;whiteSpace=wrap;html=1;" parent="1" vertex="1">
          <mxGeometry x="1327" y="530" width="312" height="50" as="geometry" />
        </mxCell>
        <mxCell id="GTTXdrcmSPd5z9FTSMzJ-99" value="https://&lt;i&gt;&amp;lt;endpoind-file&amp;gt;&lt;/i&gt;/id.bam.c4gh" style="text;strokeColor=none;fillColor=none;align=left;verticalAlign=top;spacingLeft=4;spacingRight=4;overflow=hidden;rotatable=0;points=[[0,0.5],[1,0.5]];portConstraint=eastwest;whiteSpace=wrap;html=1;" parent="GTTXdrcmSPd5z9FTSMzJ-98" vertex="1">
          <mxGeometry y="26" width="312" height="24" as="geometry" />
        </mxCell>
        <mxCell id="GTTXdrcmSPd5z9FTSMzJ-111" value="&lt;div&gt;&lt;font style=&quot;font-size: 11px;&quot;&gt;The size of the Crypt4GH header returned: &lt;i&gt;&lt;font color=&quot;#c01c28&quot;&gt;&amp;lt;crypt4gh-header-size&amp;gt;&lt;/font&gt;&lt;/i&gt; is equal to the size of the header that will be returned to the client when fetching tickets. &lt;br&gt;Optionally return &quot;backend-public-key&quot; in the response headers for the htsget-rs server to verify when decrypting the header. &lt;br&gt;&lt;/font&gt;&lt;/div&gt;" style="text;html=1;align=center;verticalAlign=middle;resizable=0;points=[];autosize=1;strokeColor=none;fillColor=none;" parent="1" vertex="1">
          <mxGeometry x="1093" y="1035" width="780" height="40" as="geometry" />
        </mxCell>
      </root>
    </mxGraphModel>
  </diagram>
</mxfile>
